<mxfile host="app.diagrams.net" modified="2025-09-10T00:00:00Z" agent="CFB" version="22.1.0">
  <diagram id="er-leagues" name="Leagues ER">
    <mxGraphModel dx="1600" dy="900" grid="1" gridSize="10" guides="1" tooltips="1" connect="1" arrows="1" fold="1" page="1" pageScale="1" pageWidth="1920" pageHeight="1080" math="0" shadow="0">
      <root>
        <mxCell id="0"/>
        <mxCell id="1" parent="0"/>
        <!-- Legend group -->
        <mxCell id="legend" value="Database shapes" style="swimlane;fontStyle=1;align=left;verticalAlign=top;childLayout=stackLayout;horizontal=1;rounded=1;shadow=0;strokeColor=#a3a3a3;fillColor=#fff7ed;startSize=28;gradientColor=none;" vertex="1" parent="1">
          <mxGeometry x="60" y="60" width="220" height="140" as="geometry"/>
        </mxCell>
        <mxCell id="legend-existing" value="Existing table" style="ellipse;whiteSpace=wrap;html=1;fillColor=#c7d2fe;strokeColor=#6366f1;" vertex="1" parent="legend">
          <mxGeometry x="16" y="40" width="16" height="16" as="geometry"/>
        </mxCell>
        <mxCell id="legend-proposed" value="Proposed table" style="ellipse;whiteSpace=wrap;html=1;fillColor=#a7f3d0;strokeColor=#10b981;" vertex="1" parent="legend">
          <mxGeometry x="16" y="70" width="16" height="16" as="geometry"/>
        </mxCell>
        <!-- Entity: LEAGUES -->
        <mxCell id="tbl-leagues" value="LEAGUES" style="shape=table;html=1;whiteSpace=wrap;container=1;collapsible=0;childLayout=tableLayout;strokeColor=#7c3aed;fillColor=#ede9fe;rounded=1;" vertex="1" parent="1">
          <mxGeometry x="460" y="120" width="360" height="160" as="geometry"/>
        </mxCell>
        <mxCell id="leagues-hdr" value="Field,Type" style="shape=tableRow;" vertex="1" parent="tbl-leagues"><mxGeometry x="0" y="28" width="360" height="24" as="geometry"/></mxCell>
        <mxCell id="leagues-id" value="leagueId,PK" style="shape=tableRow;" vertex="1" parent="tbl-leagues"><mxGeometry x="0" y="52" width="360" height="24" as="geometry"/></mxCell>
        <mxCell id="leagues-name" value="name,string" style="shape=tableRow;" vertex="1" parent="tbl-leagues"><mxGeometry x="0" y="76" width="360" height="24" as="geometry"/></mxCell>
        <mxCell id="leagues-mode" value="gameMode,enum" style="shape=tableRow;" vertex="1" parent="tbl-leagues"><mxGeometry x="0" y="100" width="360" height="24" as="geometry"/></mxCell>
        <!-- Entity: FANTASY_TEAMS -->
        <mxCell id="tbl-teams" value="FANTASY_TEAMS" style="shape=table;html=1;whiteSpace=wrap;container=1;childLayout=tableLayout;strokeColor=#4f46e5;fillColor=#eef2ff;rounded=1;" vertex="1" parent="1">
          <mxGeometry x="450" y="340" width="360" height="160" as="geometry"/>
        </mxCell>
        <mxCell id="teams-hdr" value="Field,Type" style="shape=tableRow;" vertex="1" parent="tbl-teams"><mxGeometry x="0" y="28" width="360" height="24" as="geometry"/></mxCell>
        <mxCell id="teams-id" value="teamId,PK" style="shape=tableRow;" vertex="1" parent="tbl-teams"><mxGeometry x="0" y="52" width="360" height="24" as="geometry"/></mxCell>
        <mxCell id="teams-leagueId" value="leagueId,FKey" style="shape=tableRow;" vertex="1" parent="tbl-teams"><mxGeometry x="0" y="76" width="360" height="24" as="geometry"/></mxCell>
        <mxCell id="teams-name" value="teamName,string" style="shape=tableRow;" vertex="1" parent="tbl-teams"><mxGeometry x="0" y="100" width="360" height="24" as="geometry"/></mxCell>
        <!-- Relationship: LEAGUES -> FANTASY_TEAMS -->
        <mxCell id="edge-league-teams" edge="1" parent="1" source="tbl-leagues" target="tbl-teams" style="endArrow=classic;startArrow=oval;strokeColor=#475569;endSize=8;startSize=10;">
          <mxGeometry relative="1" as="geometry"/>
        </mxCell>
      </root>
    </mxGraphModel>
  </diagram>
</mxfile>
